<svg width="61" height="68" viewBox="0 0 61 68" fill="none" xmlns="http://www.w3.org/2000/svg">
<path d="M37.7768 33.9954V63.7602C37.9279 64.8934 37.5502 66.1021 36.6814 66.8954C36.332 67.2455 35.9169 67.5233 35.4599 67.7129C35.003 67.9024 34.5132 68 34.0185 68C33.5238 68 33.0339 67.9024 32.577 67.7129C32.12 67.5233 31.7049 67.2455 31.3555 66.8954L23.7632 59.3031C23.3512 58.9003 23.038 58.4078 22.8479 57.8639C22.6579 57.32 22.5963 56.7396 22.6678 56.1679V33.9954H22.5545L0.79741 6.11917C0.184013 5.33172 -0.0927642 4.3335 0.0275572 3.34261C0.147879 2.35173 0.655516 1.44876 1.43954 0.830998C2.15723 0.302181 2.95045 0 3.78145 0H56.6632C57.4942 0 58.2874 0.302181 59.0051 0.830998C59.7891 1.44876 60.2967 2.35173 60.417 3.34261C60.5374 4.3335 60.2606 5.33172 59.6472 6.11917L37.8901 33.9954H37.7768Z" fill="#E7ECEF"/>
</svg>
