<svg width="68" height="68" viewBox="0 0 68 68" fill="none" xmlns="http://www.w3.org/2000/svg">
<path d="M65.0697 68L39.0783 42.0118C37.003 43.7798 34.6164 45.148 31.9185 46.1163C29.2205 47.0847 26.5088 47.5689 23.7832 47.5689C17.1366 47.5689 11.5111 45.2683 6.90667 40.6672C2.30222 36.0633 0 30.4399 0 23.7969C0 17.1539 2.29946 11.5277 6.89837 6.91828C11.5001 2.30609 17.1228 0 23.7666 0C30.4132 0 36.0414 2.30194 40.6514 6.90583C45.2614 11.5097 47.5664 17.1359 47.5664 23.7844C47.5664 26.6674 47.0559 29.4577 46.0348 32.1553C45.011 34.8529 43.6689 37.1603 42.0087 39.0777L68 65.0617L65.0697 68ZM23.7832 43.4146C29.2897 43.4146 33.9398 41.5194 37.7335 37.7289C41.5244 33.9384 43.4199 29.2889 43.4199 23.7803C43.4199 18.2744 41.5244 13.6263 37.7335 9.83583C33.9426 6.04537 29.2939 4.15014 23.7873 4.15014C18.2808 4.15014 13.6307 6.04537 9.83703 9.83583C6.0461 13.6263 4.15064 18.2744 4.15064 23.7803C4.15064 29.2861 6.0461 33.9343 9.83703 37.7248C13.6279 41.5152 18.2767 43.4146 23.7832 43.4146Z" fill="#E7ECEF"/>
</svg>
